<svg width="22" height="18" viewBox="0 0 22 18" fill="none" xmlns="http://www.w3.org/2000/svg">
<path d="M21.1549 2.18437C20.8148 2.33519 20.4652 2.46248 20.108 2.56581C20.5309 2.08752 20.8534 1.52474 21.0502 0.908897C21.0943 0.770855 21.0486 0.619757 20.9351 0.529475C20.8218 0.439123 20.6644 0.4283 20.5396 0.502244C19.7809 0.952188 18.9625 1.27554 18.1043 1.46462C17.2398 0.619897 16.0656 0.13916 14.8518 0.13916C12.2896 0.13916 10.2051 2.22361 10.2051 4.78572C10.2051 4.98751 10.2179 5.18818 10.2432 5.38607C7.06373 5.10691 4.10789 3.54418 2.07811 1.05434C2.00577 0.965594 1.89433 0.917765 1.78024 0.926912C1.66608 0.935849 1.56351 1.00023 1.50583 1.09917C1.09415 1.80557 0.876512 2.6135 0.876512 3.43554C0.876512 4.55516 1.27625 5.61746 1.98238 6.44753C1.76767 6.37316 1.55932 6.28023 1.36046 6.16984C1.2537 6.11042 1.12341 6.11132 1.01735 6.17214C0.911215 6.23296 0.844673 6.34481 0.84188 6.46708C0.841391 6.48767 0.841391 6.50827 0.841391 6.52915C0.841391 8.20038 1.74086 9.70501 3.11604 10.5251C2.9979 10.5133 2.87983 10.4962 2.76252 10.4738C2.64159 10.4507 2.51723 10.493 2.43568 10.5853C2.35398 10.6774 2.32696 10.8059 2.3646 10.9232C2.87361 12.5124 4.18413 13.6813 5.76843 14.0377C4.45442 14.8607 2.95174 15.2918 1.37429 15.2918C1.04514 15.2918 0.714102 15.2725 0.39012 15.2341C0.229176 15.215 0.0752848 15.31 0.0204732 15.4631C-0.0343385 15.6162 0.0237549 15.7869 0.160679 15.8747C2.18717 17.1741 4.53039 17.8608 6.93686 17.8608C11.6677 17.8608 14.6272 15.63 16.2768 13.7585C18.3338 11.4249 19.5135 8.33612 19.5135 5.28419C19.5135 5.15669 19.5116 5.02794 19.5077 4.8996C20.3192 4.28816 21.0179 3.54816 21.5865 2.69764C21.6729 2.56847 21.6635 2.39775 21.5635 2.27884C21.4636 2.15986 21.297 2.12139 21.1549 2.18437Z" fill="#475569"/>
</svg>
