<svg width="22" height="16" viewBox="0 0 22 16" fill="none" xmlns="http://www.w3.org/2000/svg">
<path fill-rule="evenodd" clip-rule="evenodd" d="M8.73108 10.7991V4.72557C10.8872 5.74012 12.5571 6.7202 14.5321 7.77685C12.9031 8.68023 10.8872 9.69385 8.73108 10.7991ZM20.747 1.70495C20.3751 1.21494 19.7412 0.83351 19.0664 0.707231C17.0827 0.330548 4.7078 0.329476 2.72527 0.707231C2.18408 0.808683 1.70218 1.05391 1.28821 1.43491C-0.456077 3.05387 0.0904993 11.7359 0.51094 13.1422C0.687739 13.7509 0.916296 14.19 1.20414 14.4781C1.57498 14.8591 2.08274 15.1215 2.66596 15.2391C4.29921 15.5769 12.7134 15.7658 19.0318 15.2898C19.614 15.1884 20.1293 14.9176 20.5357 14.5204C22.1485 12.9079 22.0385 3.73837 20.747 1.70495Z" fill="#475569"/>
</svg>
